<mxfile host="app.diagrams.net" modified="2022-10-25T11:40:21.556Z" agent="5.0 (Macintosh; Intel Mac OS X 10_15_7) AppleWebKit/537.36 (KHTML, like Gecko) Chrome/106.0.0.0 Safari/537.36" etag="QcVXDmviG6GhSdMNx73O" version="20.4.2" type="github">
  <diagram id="VgOGGdtNEHgQYgJjuhsM" name="페이지-1">
    <mxGraphModel dx="924" dy="705" grid="1" gridSize="10" guides="1" tooltips="1" connect="1" arrows="1" fold="1" page="1" pageScale="1" pageWidth="827" pageHeight="1169" math="0" shadow="0">
      <root>
        <mxCell id="0" />
        <mxCell id="1" parent="0" />
        <mxCell id="sXiOWz6Qdztsvf9TA0Ev-1" value="웹소켓" style="text;html=1;strokeColor=none;fillColor=none;align=center;verticalAlign=middle;whiteSpace=wrap;rounded=0;" vertex="1" parent="1">
          <mxGeometry x="70" y="100" width="60" height="30" as="geometry" />
        </mxCell>
        <mxCell id="sXiOWz6Qdztsvf9TA0Ev-5" value="spring application" style="fillColor=#d5e8d4;strokeColor=#82b366;dashed=0;verticalAlign=top;fontStyle=0;shadow=1;" vertex="1" parent="1">
          <mxGeometry x="330" y="140" width="210" height="297" as="geometry" />
        </mxCell>
        <mxCell id="sXiOWz6Qdztsvf9TA0Ev-17" value="client" style="rounded=1;whiteSpace=wrap;html=1;" vertex="1" parent="1">
          <mxGeometry x="50" y="330" width="70" height="50" as="geometry" />
        </mxCell>
        <mxCell id="sXiOWz6Qdztsvf9TA0Ev-18" value="" style="shape=or;whiteSpace=wrap;html=1;" vertex="1" parent="1">
          <mxGeometry x="120" y="340" width="20" height="30" as="geometry" />
        </mxCell>
        <mxCell id="sXiOWz6Qdztsvf9TA0Ev-19" value="client" style="rounded=1;whiteSpace=wrap;html=1;" vertex="1" parent="1">
          <mxGeometry x="40" y="320" width="70" height="50" as="geometry" />
        </mxCell>
        <mxCell id="sXiOWz6Qdztsvf9TA0Ev-20" value="client" style="rounded=1;whiteSpace=wrap;html=1;" vertex="1" parent="1">
          <mxGeometry x="30" y="310" width="70" height="50" as="geometry" />
        </mxCell>
        <mxCell id="sXiOWz6Qdztsvf9TA0Ev-21" value="" style="shape=or;whiteSpace=wrap;html=1;" vertex="1" parent="1">
          <mxGeometry x="110" y="330" width="20" height="30" as="geometry" />
        </mxCell>
        <mxCell id="sXiOWz6Qdztsvf9TA0Ev-22" value="" style="shape=or;whiteSpace=wrap;html=1;" vertex="1" parent="1">
          <mxGeometry x="100" y="320" width="20" height="30" as="geometry" />
        </mxCell>
        <mxCell id="sXiOWz6Qdztsvf9TA0Ev-23" value="" style="group" vertex="1" connectable="0" parent="1">
          <mxGeometry x="30" y="170" width="150" height="100" as="geometry" />
        </mxCell>
        <mxCell id="sXiOWz6Qdztsvf9TA0Ev-2" value="client" style="rounded=1;whiteSpace=wrap;html=1;" vertex="1" parent="sXiOWz6Qdztsvf9TA0Ev-23">
          <mxGeometry x="27.27272727272727" y="28.571428571428573" width="95.45454545454545" height="71.42857142857143" as="geometry" />
        </mxCell>
        <mxCell id="sXiOWz6Qdztsvf9TA0Ev-3" value="" style="shape=or;whiteSpace=wrap;html=1;" vertex="1" parent="sXiOWz6Qdztsvf9TA0Ev-23">
          <mxGeometry x="122.72727272727272" y="42.85714285714286" width="27.27272727272727" height="42.85714285714286" as="geometry" />
        </mxCell>
        <mxCell id="sXiOWz6Qdztsvf9TA0Ev-6" value="client" style="rounded=1;whiteSpace=wrap;html=1;" vertex="1" parent="sXiOWz6Qdztsvf9TA0Ev-23">
          <mxGeometry x="13.636363636363635" y="14.285714285714286" width="95.45454545454545" height="71.42857142857143" as="geometry" />
        </mxCell>
        <mxCell id="sXiOWz6Qdztsvf9TA0Ev-7" value="ws://{}/app" style="rounded=1;whiteSpace=wrap;html=1;" vertex="1" parent="sXiOWz6Qdztsvf9TA0Ev-23">
          <mxGeometry width="95.45454545454545" height="71.42857142857143" as="geometry" />
        </mxCell>
        <mxCell id="sXiOWz6Qdztsvf9TA0Ev-8" value="" style="shape=or;whiteSpace=wrap;html=1;" vertex="1" parent="sXiOWz6Qdztsvf9TA0Ev-23">
          <mxGeometry x="109.09090909090908" y="28.571428571428573" width="27.27272727272727" height="42.85714285714286" as="geometry" />
        </mxCell>
        <mxCell id="sXiOWz6Qdztsvf9TA0Ev-9" value="" style="shape=or;whiteSpace=wrap;html=1;" vertex="1" parent="sXiOWz6Qdztsvf9TA0Ev-23">
          <mxGeometry x="95.45454545454545" y="14.285714285714286" width="27.27272727272727" height="42.85714285714286" as="geometry" />
        </mxCell>
      </root>
    </mxGraphModel>
  </diagram>
</mxfile>
